<svg width="183" height="32" viewBox="0 0 183 32" fill="none" xmlns="http://www.w3.org/2000/svg">
<path fill-rule="evenodd" clip-rule="evenodd" d="M122.37 3.66064C123.667 3.66064 124.577 4.55488 124.577 5.86706C124.577 7.17923 123.667 8.05841 122.37 8.05841C121.073 8.05841 120.179 7.16417 120.179 5.86706C120.179 4.56994 121.073 3.66064 122.37 3.66064ZM120.476 24.7703V10.4587H124.307V24.7703H120.476ZM38.1919 4.52681H54.8586V8.10375H48.5368V24.7704H44.5269V8.10375H38.1919V4.52681ZM53.4694 10.4589H57.1631L57.2384 12.4111C57.9688 10.9201 59.3544 10.1595 60.9659 10.1595C61.815 10.1595 62.5304 10.3836 62.8297 10.4871L62.5323 13.9003C62.1445 13.7666 61.5194 13.5727 60.7589 13.5727C59.0739 13.5727 57.3005 14.482 57.3005 17.4339V24.7685H53.4694V10.4589ZM65.0261 10.4606V19.5386L65.0242 19.5404C65.0242 22.9837 67.3492 25.145 70.6589 25.145C72.8201 25.145 74.3563 24.2055 75.1018 23.1927L75.1771 24.7722H78.8143V10.4606H74.9983V18.5558C74.9983 20.5382 73.4639 21.5962 71.7941 21.5962C70.1242 21.5962 68.8421 20.5382 68.8421 18.5558V10.4606H65.0261ZM80.9192 17.5998C80.9342 13.2322 84.0349 10.1617 88.2839 10.1617C92.2204 10.1617 95.2157 12.8011 95.2157 17.1386C95.2157 17.6601 95.1705 18.1966 95.082 18.7633H84.7352C85.0176 20.4482 86.7326 21.6248 88.5512 21.6248C89.967 21.6248 91.1907 20.9697 92.115 19.6123L94.8278 21.6399C93.4855 23.8764 90.9817 25.0832 88.4628 25.0832C83.8711 25.0832 80.9192 21.7736 80.9192 17.5998ZM91.6519 16.1992C91.458 14.6046 90.1458 13.3809 88.3272 13.3809C86.5086 13.3809 85.0025 14.5745 84.7936 16.1992H91.6519ZM107.56 4.54145H99.1828V24.787H107.56C113.568 24.787 118.011 20.4495 118.011 14.6642C118.011 8.87897 113.568 4.54145 107.56 4.54145ZM107.442 21.3117H103.208V21.3098V7.99791H107.442C111.288 7.99791 113.897 10.9047 113.897 14.6623C113.897 18.42 111.288 21.3117 107.442 21.3117ZM138.418 12.1887C137.463 10.9951 135.987 10.1611 133.692 10.1611V10.163C129.637 10.163 126.761 13.2787 126.761 17.6012C126.761 21.9237 129.637 25.0695 133.692 25.0695C135.795 25.0695 137.48 24.3089 138.344 23.1605V23.6519C138.344 26.0371 136.571 27.6016 133.858 27.6016C132.233 27.6016 130.772 26.841 129.415 25.5288L126.954 27.9442C128.609 29.8965 131.232 31.0449 133.856 31.0449C138.926 31.0449 142.115 28.0045 142.13 23.2641L142.16 10.4586H138.493L138.418 12.1887ZM134.483 21.6394C132.201 21.6394 130.607 19.8509 130.607 17.5843C130.607 15.2743 132.231 13.5894 134.483 13.5894C136.735 13.5894 138.374 15.3176 138.374 17.5843C138.374 19.8509 136.765 21.6394 134.483 21.6394ZM146.529 3.66064C147.826 3.66064 148.735 4.55488 148.735 5.86706C148.735 7.17923 147.826 8.05841 146.529 8.05841C145.232 8.05841 144.337 7.16417 144.337 5.86706C144.337 4.56994 145.232 3.66064 146.529 3.66064ZM144.635 24.7703V10.4587H148.466V24.7703H144.635ZM150.203 10.4589V13.6348H152.618V20.0752C152.618 23.4451 154.734 25.0698 157.88 25.0698C159.044 25.0698 160.459 24.7874 161.339 24.3544L160.981 21.1784C160.175 21.506 159.266 21.6698 158.55 21.6698C157.268 21.6698 156.434 21.0146 156.434 19.5236V13.6348H160.638V10.4589H156.346V5.86721H152.633V10.4589H150.203ZM162.306 20.6702C162.306 17.9724 164.78 16.0936 168.583 16.0936C169.567 16.0936 170.67 16.2574 171.595 16.585V16.2574C171.595 14.6779 170.313 13.5295 168.494 13.5295C166.839 13.5295 165.648 14.3352 164.708 15.333L162.517 13.1417C163.486 11.8897 165.602 10.1596 168.615 10.1596C172.803 10.1596 175.413 12.3811 175.413 15.9581V24.7686H171.776V23.1741C171 24.3375 169.524 25.068 167.72 25.068C164.471 25.068 162.31 23.3228 162.31 20.6702H162.306ZM165.928 20.4612C165.928 21.5343 166.853 22.2196 168.313 22.2196C170.147 22.2196 171.593 20.9978 171.593 19.1942C170.893 18.8817 169.983 18.6426 168.85 18.6426C167.105 18.6426 165.928 19.3731 165.928 20.4612ZM177.906 24.7705H181.722V3.78135H177.906V24.7705Z" fill="#086CE5"/>
<path d="M22.7043 0.237793H0.237305V5.59756H10.955V19.7886H16.3147V5.59756H21.3469C22.0736 5.59756 22.6629 6.18682 22.6629 6.9135V22.9495C22.6629 23.6762 22.0736 24.2655 21.3469 24.2655H5.59708V10.9555H0.237305V24.3069C0.237305 27.2437 2.61692 29.6234 5.55378 29.6234H22.7062C25.643 29.6234 28.0227 27.2437 28.0227 24.3069V5.55427C28.0227 2.6174 25.643 0.237793 22.7062 0.237793H22.7043Z" fill="#086CE5"/>
</svg>
